# This file uses centimeters as units for non-parametric coordinates.

mtllib ship.mtl
g default
v 70.050499 -27.795799 -67.902000
v 13.188800 12.804400 31.743900
v -0.019700 13.581200 -137.983307
v 12.925200 47.854198 -89.351799
v -69.998398 -27.795900 -67.902000
v -14.139100 12.804400 31.743900
v -14.139100 47.854198 -89.351799
v 80.939003 -33.499001 -67.785103
v -0.667900 -14.825500 341.795807
v -81.662201 -33.499001 -67.785202
v -0.361600 -69.009201 55.403999
v -70.002602 -29.088600 -67.785202
v 70.027100 -29.088600 -67.785202
v 0.678100 9.580400 -109.806297
v 34.969002 -10.668700 -75.509903
v -33.568100 -10.668700 -75.509903
v 138.533798 74.015999 -202.581802
v 103.519501 19.618799 -46.893101
v 103.832199 -82.610497 68.779198
v 70.874001 -26.961500 -66.909798
v 102.318199 -26.976400 -66.909798
v 137.204803 -62.332001 -138.047897
v 138.804092 -27.870399 -69.976402
v 70.049698 -27.870399 -67.900803
v 189.575897 -63.622200 -207.699600
v 189.101593 -62.617599 -207.537598
v 238.830307 -96.396004 -341.306488
v 205.318207 -62.639599 -217.011398
v 70.049698 -27.277201 -67.900803
v 138.804092 -27.277201 -69.976402
v 89.345001 -41.491100 -48.279301
v 123.543999 -41.491100 -48.120201
v -138.482498 74.015999 -202.581802
v -103.468300 19.618799 -46.893101
v -103.780899 -82.610497 68.779198
v -70.822800 -26.961500 -66.909798
v -102.266998 -26.976400 -66.909798
v -137.153503 -62.332001 -138.047897
v -138.752808 -27.870399 -69.976402
v -69.998398 -27.870399 -67.900803
v -189.524704 -63.622200 -207.699600
v -189.050293 -62.617599 -207.537598
v -238.779007 -96.396103 -341.306488
v -205.266998 -62.639599 -217.011398
v -69.998398 -27.277201 -67.900803
v -138.752808 -27.277201 -69.976402
v -89.293701 -41.491100 -48.279301
v -123.492798 -41.491100 -48.120201
vt 0.898547 0.919165
vt 0.957252 0.904332
vt 0.961329 0.915068
vt 0.902664 0.930006
vt 0.938255 0.884316
vt 0.982762 0.903468
vt 0.959353 0.939874
vt 0.750429 0.962909
vt 0.936558 0.880011
vt 0.961053 0.944515
vt 0.884483 0.766601
vt 0.884482 0.695549
vt 0.884953 0.695561
vt 0.884953 0.766603
vt 0.878242 0.748119
vt 0.878242 0.713347
vt 0.886561 0.690025
vt 0.886561 0.772518
vt 0.870863 0.730744
vt 0.155776 0.689836
vt 0.139372 0.755442
vt 0.153583 0.689836
vt 0.139433 0.709569
vt 0.125434 0.689836
vt 0.123090 0.689836
vt 0.899649 0.725220
vt 0.889381 0.725574
vt 0.914918 0.690025
vt 0.912146 0.707823
vt 0.912146 0.742594
vt 0.914918 0.761077
vt 0.834321 0.240957
vt 0.781729 0.391478
vt 0.682893 0.503311
vt 0.736681 0.372126
vt 0.818172 0.252447
vt 0.773138 0.271800
vt 0.719336 0.140615
vt 0.870764 0.402969
vt 0.568650 0.284994
vt 0.536786 0.153809
vt 0.567186 0.153809
vt 0.602200 0.022640
vt 0.813247 0.800235
vt 0.800220 0.730363
vt 0.800586 0.730445
vt 0.813464 0.800235
vt 0.800578 0.725639
vt 0.808284 0.811323
vt 0.096770 0.249497
vt 0.098316 0.315309
vt 0.031843 0.317316
vt 0.195022 0.052985
vt 0.147402 0.182157
vt 0.083562 0.336440
vt 0.050498 0.336286
vt 0.162622 0.173155
vt 0.806946 0.212832
vt 0.873418 0.214839
vt 0.922046 0.347834
vt 0.970124 0.477163
vt 0.825601 0.193862
vt 0.858665 0.193708
vt 0.937725 0.356993
vt 0.803673 0.304287
vt 0.746600 0.166616
vt 0.828210 0.374509
vt 0.758807 0.505644
vt 0.718835 0.349040
vt 0.619999 0.460873
vt 0.673800 0.329687
vt 0.771426 0.198519
vt 0.666974 0.225441
vt 0.667526 0.156601
vt 0.678984 0.156601
vt 0.780870 0.087770
vt 0.797473 0.736727
vt 0.797689 0.736727
vt 0.784811 0.806517
vt 0.784445 0.806599
vt 0.792509 0.725639
vt 0.784803 0.811323
vt 0.343593 0.334521
vt 0.408519 0.402340
vt 0.342047 0.400333
vt 0.245341 0.138009
vt 0.389864 0.421310
vt 0.356800 0.421464
vt 0.292960 0.267181
vt 0.277741 0.258178
vt 0.724331 0.200342
vt 0.561153 0.464673
vt 0.609231 0.335344
vt 0.657859 0.202349
vt 0.593553 0.344504
vt 0.672612 0.181218
vt 0.705676 0.181372
vt 0.853687 0.888579
vt 0.785943 0.848576
vt 0.798458 0.815440
vt 0.937856 0.690025
vt 0.943001 0.707413
vt 0.917501 0.728405
vt 0.841181 0.725639
vt 0.816211 0.811267
vt 0.815995 0.811267
vt 0.474312 0.973633
vt 0.461144 0.954663
vt 0.474886 0.973633
vt 0.868615 0.775653
vt 0.843429 0.690025
vt 0.843645 0.690025
vt 0.494329 0.954663
vt 0.494903 0.954663
vt 0.481161 0.973633
vn 0.760014 0.624712 0.179203
vn 0.760014 0.624712 0.179203
vn 0.760014 0.624712 0.179203
vn -0.766696 0.616697 0.178499
vn -0.766696 0.616697 0.178499
vn -0.766696 0.616697 0.178499
vn 0.000000 0.960583 0.277995
vn 0.000000 0.960583 0.277995
vn 0.000000 0.960583 0.277995
vn 0.000000 0.960583 0.277995
vn 0.000000 0.817386 -0.576090
vn 0.000000 0.817386 -0.576090
vn 0.000000 0.817386 -0.576090
vn 0.000000 -0.861116 -0.508409
vn 0.000000 -0.861116 -0.508409
vn 0.000000 -0.861116 -0.508409
vn 0.462896 0.884892 0.051900
vn 0.462896 0.884892 0.051900
vn 0.462896 0.884892 0.051900
vn 0.000000 0.996050 0.088796
vn 0.000000 0.996050 0.088796
vn 0.000000 0.996050 0.088796
vn -0.689582 0.718081 0.093998
vn -0.689582 0.718081 0.093998
vn -0.689582 0.718081 0.093998
vn 0.000000 -0.090004 -0.995942
vn 0.000000 -0.090004 -0.995942
vn 0.000000 -0.090004 -0.995942
vn 0.000000 -0.090004 -0.995942
vn -0.374521 -0.926652 -0.032402
vn -0.374521 -0.926652 -0.032402
vn -0.374521 -0.926652 -0.032402
vn 0.353687 -0.934965 -0.027299
vn 0.353687 -0.934965 -0.027299
vn 0.353687 -0.934965 -0.027299
vn -0.438405 0.897610 0.045801
vn -0.438405 0.897610 0.045801
vn -0.438405 0.897610 0.045801
vn 0.683418 0.723819 0.095003
vn 0.683418 0.723819 0.095003
vn 0.683418 0.723819 0.095003
vn 0.753033 0.426519 -0.501022
vn 0.753033 0.426519 -0.501022
vn 0.753033 0.426519 -0.501022
vn 0.662377 -0.735974 0.139995
vn 0.662377 -0.735974 0.139995
vn 0.662377 -0.735974 0.139995
vn -0.665087 -0.733886 0.138097
vn -0.665087 -0.733886 0.138097
vn -0.665087 -0.733886 0.138097
vn 0.000000 -0.951290 -0.308297
vn 0.000000 -0.951290 -0.308297
vn 0.000000 -0.951290 -0.308297
vn -0.036098 -0.089296 -0.995351
vn -0.036098 -0.089296 -0.995351
vn -0.036098 -0.089296 -0.995351
vn 0.034098 -0.090095 -0.995349
vn 0.034098 -0.090095 -0.995349
vn 0.034098 -0.090095 -0.995349
vn -0.754703 0.412701 -0.510002
vn -0.754703 0.412701 -0.510002
vn -0.754703 0.412701 -0.510002
vn -0.414903 -0.902207 -0.117801
vn -0.414903 -0.902207 -0.117801
vn -0.414903 -0.902207 -0.117801
vn -0.414903 -0.902207 -0.117801
vn 0.000000 -0.405990 -0.913878
vn 0.000000 -0.405990 -0.913878
vn 0.000000 -0.405990 -0.913878
vn 0.000000 -0.405990 -0.913878
vn 0.397491 -0.907079 -0.138597
vn 0.397491 -0.907079 -0.138597
vn 0.397491 -0.907079 -0.138597
vn 0.397491 -0.907079 -0.138597
vn 0.870029 0.370612 0.325111
vn 0.870029 0.370612 0.325111
vn 0.870029 0.370612 0.325111
vn -0.827490 0.419595 0.373096
vn -0.827490 0.419595 0.373096
vn -0.827490 0.419595 0.373096
vn -0.821719 0.569713 0.014300
vn -0.821719 0.569713 0.014300
vn -0.821719 0.569713 0.014300
vn -0.000400 -0.802095 -0.597196
vn -0.000400 -0.802095 -0.597196
vn -0.000400 -0.802095 -0.597196
vn 0.742128 -0.617223 -0.261310
vn 0.742128 -0.617223 -0.261310
vn 0.742128 -0.617223 -0.261310
vn -0.000400 -0.925228 -0.379411
vn -0.000400 -0.925228 -0.379411
vn -0.000400 -0.925228 -0.379411
vn 0.928444 0.247612 0.276913
vn 0.928444 0.247612 0.276913
vn 0.928444 0.247612 0.276913
vn 0.928444 0.247612 0.276913
vn -0.850912 0.000000 -0.525308
vn -0.850912 0.000000 -0.525308
vn -0.850912 0.000000 -0.525308
vn 0.013600 -0.892214 0.451407
vn 0.013600 -0.892214 0.451407
vn 0.013600 -0.892214 0.451407
vn 0.482604 -0.790307 0.377503
vn 0.482604 -0.790307 0.377503
vn 0.482604 -0.790307 0.377503
vn 0.482604 -0.790307 0.377503
vn -0.003300 0.968757 -0.247989
vn -0.003300 0.968757 -0.247989
vn -0.003300 0.968757 -0.247989
vn -0.003300 0.968757 -0.247989
vn 0.243498 -0.917394 0.314798
vn 0.243498 -0.917394 0.314798
vn 0.243498 -0.917394 0.314798
vn 0.502092 0.098498 0.859187
vn 0.502092 0.098498 0.859187
vn 0.502092 0.098498 0.859187
vn -0.175001 0.937204 -0.301701
vn -0.175001 0.937204 -0.301701
vn -0.175001 0.937204 -0.301701
vn -0.571102 -0.807002 -0.150300
vn -0.571102 -0.807002 -0.150300
vn -0.571102 -0.807002 -0.150300
vn -0.010200 -0.836290 -0.548193
vn -0.010200 -0.836290 -0.548193
vn -0.010200 -0.836290 -0.548193
vn -0.010200 -0.836290 -0.548193
vn -0.712982 0.000000 0.701182
vn -0.712982 0.000000 0.701182
vn -0.712982 0.000000 0.701182
vn 0.010500 0.825299 0.564599
vn 0.010500 0.825299 0.564599
vn 0.010500 0.825299 0.564599
vn 0.010500 0.825299 0.564599
vn 0.819903 0.000000 0.572502
vn 0.819903 0.000000 0.572502
vn 0.819903 0.000000 0.572502
vn -0.870029 0.370612 0.325111
vn -0.870029 0.370612 0.325111
vn -0.870029 0.370612 0.325111
vn 0.827490 0.419595 0.373096
vn 0.827490 0.419595 0.373096
vn 0.827490 0.419595 0.373096
vn 0.821719 0.569713 0.014300
vn 0.821719 0.569713 0.014300
vn 0.821719 0.569713 0.014300
vn 0.000400 -0.802095 -0.597196
vn 0.000400 -0.802095 -0.597196
vn 0.000400 -0.802095 -0.597196
vn -0.742128 -0.617223 -0.261310
vn -0.742128 -0.617223 -0.261310
vn -0.742128 -0.617223 -0.261310
vn 0.000400 -0.925228 -0.379411
vn 0.000400 -0.925228 -0.379411
vn 0.000400 -0.925228 -0.379411
vn -0.928444 0.247612 0.276913
vn -0.928444 0.247612 0.276913
vn -0.928444 0.247612 0.276913
vn -0.928444 0.247612 0.276913
vn 0.850912 0.000000 -0.525308
vn 0.850912 0.000000 -0.525308
vn 0.850912 0.000000 -0.525308
vn -0.013600 -0.892214 0.451407
vn -0.013600 -0.892214 0.451407
vn -0.013600 -0.892214 0.451407
vn -0.482604 -0.790307 0.377503
vn -0.482604 -0.790307 0.377503
vn -0.482604 -0.790307 0.377503
vn -0.482604 -0.790307 0.377503
vn 0.003300 0.968757 -0.247989
vn 0.003300 0.968757 -0.247989
vn 0.003300 0.968757 -0.247989
vn 0.003300 0.968757 -0.247989
vn -0.243498 -0.917394 0.314798
vn -0.243498 -0.917394 0.314798
vn -0.243498 -0.917394 0.314798
vn -0.502092 0.098498 0.859187
vn -0.502092 0.098498 0.859187
vn -0.502092 0.098498 0.859187
vn 0.175001 0.937204 -0.301701
vn 0.175001 0.937204 -0.301701
vn 0.175001 0.937204 -0.301701
vn 0.571102 -0.807002 -0.150300
vn 0.571102 -0.807002 -0.150300
vn 0.571102 -0.807002 -0.150300
vn 0.010200 -0.836290 -0.548193
vn 0.010200 -0.836290 -0.548193
vn 0.010200 -0.836290 -0.548193
vn 0.010200 -0.836290 -0.548193
vn 0.712982 0.000000 0.701182
vn 0.712982 0.000000 0.701182
vn 0.712982 0.000000 0.701182
vn -0.010500 0.825299 0.564599
vn -0.010500 0.825299 0.564599
vn -0.010500 0.825299 0.564599
vn -0.010500 0.825299 0.564599
vn -0.819903 0.000000 0.572502
vn -0.819903 0.000000 0.572502
vn -0.819903 0.000000 0.572502
s off
g ship:Arwing_SNES_high_poly_original
usemtl initialShadingGroup
f 1/5/1 4/2/2 2/1/3
f 5/7/4 6/4/5 7/3/6
f 2/1/7 4/2/8 7/3/9 6/4/10
f 4/2/11 3/6/12 7/3/13
f 14/19/14 15/16/15 16/15/16
f 1/5/17 9/8/18 8/9/19
f 2/1/20 6/4/21 9/8/22
f 6/4/23 5/7/24 9/8/25
f 5/11/26 1/12/27 13/13/28 12/14/29
f 8/20/30 9/21/31 13/22/32
f 9/21/33 10/25/34 12/24/35
f 5/7/36 10/10/37 9/8/38
f 1/5/39 2/1/40 9/8/41
f 1/98/42 3/99/43 4/100/44
f 9/21/45 11/23/46 13/22/47
f 12/24/48 11/23/49 9/21/50
f 13/22/51 11/23/52 12/24/53
f 1/12/54 8/17/55 13/13/56
f 12/14/57 10/18/58 5/11/59
f 7/101/60 3/102/61 5/103/62
f 14/26/63 3/27/64 1/28/65 15/29/66
f 1/12/67 5/11/68 16/15/69 15/16/70
f 16/30/71 5/31/72 3/27/73 14/26/74
f 17/32/75 18/33/76 19/34/77
f 18/36/78 20/37/79 19/38/80
f 18/36/81 17/39/82 20/37/83
f 20/41/84 17/43/85 21/42/86
f 17/32/87 19/34/88 21/35/89
f 19/40/90 20/41/91 21/42/92
f 23/44/93 25/45/94 26/46/95 30/47/96
f 27/104/97 24/105/98 29/106/99
f 22/50/100 23/51/101 24/52/102
f 22/50/103 27/53/104 25/54/105 23/51/106
f 29/58/107 30/59/108 26/60/109 27/61/110
f 27/53/111 28/57/112 25/54/113
f 25/45/114 28/48/115 26/46/116
f 26/60/117 28/64/118 27/61/119
f 24/52/120 27/53/121 22/50/122
f 23/51/123 32/55/124 31/56/125 24/52/126
f 24/107/127 31/108/128 29/109/129
f 29/58/130 31/62/131 32/63/132 30/59/133
f 30/47/134 32/49/135 23/44/136
f 33/65/137 35/66/138 34/67/139
f 34/69/140 35/70/141 36/71/142
f 34/69/143 36/71/144 33/72/145
f 36/75/146 37/74/147 33/76/148
f 33/65/149 37/68/150 35/66/151
f 35/73/152 37/74/153 36/75/154
f 39/77/155 46/78/156 42/79/157 41/80/158
f 43/110/159 45/111/160 40/112/161
f 38/83/162 40/84/163 39/85/164
f 38/83/165 39/85/166 41/89/167 43/86/168
f 45/91/169 43/92/170 42/93/171 46/94/172
f 43/86/173 41/89/174 44/90/175
f 41/80/176 42/79/177 44/82/178
f 42/93/179 43/92/180 44/95/181
f 40/84/182 38/83/183 43/86/184
f 39/85/185 40/84/186 47/87/187 48/88/188
f 40/113/189 45/114/190 47/115/191
f 45/91/192 46/94/193 48/96/194 47/97/195
f 46/78/196 39/77/197 48/81/198
