# 3ds Max Wavefront OBJ Exporter v0.97b - (c)2007 guruware
# File Created: 21.06.2012 11:13:24

#
# object Arwing_SNES_high_poly_original
#

v  70.0505 -27.7958 -67.9020
v  13.1888 12.8044 31.7439
v  -0.0197 13.5812 -137.9833
v  12.9252 47.8542 -89.3518
v  -69.9984 -27.7959 -67.9020
v  -14.1391 12.8044 31.7439
v  -14.1391 47.8542 -89.3518
v  80.9390 -33.4990 -67.7851
v  -0.6679 -14.8255 341.7958
v  -81.6622 -33.4990 -67.7852
v  -0.3616 -69.0092 55.4040
v  -70.0026 -29.0886 -67.7852
v  70.0271 -29.0886 -67.7852
v  0.6781 9.5804 -109.8063
v  34.9690 -10.6687 -75.5099
v  -33.5681 -10.6687 -75.5099
v  138.5338 74.0160 -202.5818
v  103.5195 19.6188 -46.8931
v  103.8322 -82.6105 68.7792
v  70.8740 -26.9615 -66.9098
v  102.3182 -26.9764 -66.9098
v  137.2048 -62.3320 -138.0479
v  138.8041 -27.8704 -69.9764
v  70.0497 -27.8704 -67.9008
v  189.5759 -63.6222 -207.6996
v  189.1016 -62.6176 -207.5376
v  238.8303 -96.3960 -341.3065
v  205.3182 -62.6396 -217.0114
v  70.0497 -27.2772 -67.9008
v  138.8041 -27.2772 -69.9764
v  89.3450 -41.4911 -48.2793
v  123.5440 -41.4911 -48.1202
v  -138.4825 74.0160 -202.5818
v  -103.4683 19.6188 -46.8931
v  -103.7809 -82.6105 68.7792
v  -70.8228 -26.9615 -66.9098
v  -102.2670 -26.9764 -66.9098
v  -137.1535 -62.3320 -138.0479
v  -138.7528 -27.8704 -69.9764
v  -69.9984 -27.8704 -67.9008
v  -189.5247 -63.6222 -207.6996
v  -189.0503 -62.6176 -207.5376
v  -238.7790 -96.3961 -341.3065
v  -205.2670 -62.6396 -217.0114
v  -69.9984 -27.2772 -67.9008
v  -138.7528 -27.2772 -69.9764
v  -89.2937 -41.4911 -48.2793
v  -123.4928 -41.4911 -48.1202
# 48 vertices

vn 0.7600 0.6247 0.1792
vn 0.7600 0.6247 0.1792
vn 0.7600 0.6247 0.1792
vn -0.7667 0.6167 0.1785
vn -0.7667 0.6167 0.1785
vn -0.7667 0.6167 0.1785
vn -0.0000 0.9606 0.2780
vn -0.0000 0.9606 0.2780
vn -0.0000 0.9606 0.2780
vn -0.0000 0.9606 0.2780
vn 0.0000 0.8174 -0.5761
vn 0.0000 0.8174 -0.5761
vn 0.0000 0.8174 -0.5761
vn 0.0000 -0.8611 -0.5084
vn 0.0000 -0.8611 -0.5084
vn 0.0000 -0.8611 -0.5084
vn 0.4629 0.8849 0.0519
vn 0.4629 0.8849 0.0519
vn 0.4629 0.8849 0.0519
vn -0.0000 0.9961 0.0888
vn -0.0000 0.9961 0.0888
vn -0.0000 0.9961 0.0888
vn -0.6896 0.7181 0.0940
vn -0.6896 0.7181 0.0940
vn -0.6896 0.7181 0.0940
vn 0.0000 -0.0900 -0.9959
vn 0.0000 -0.0900 -0.9959
vn 0.0000 -0.0900 -0.9959
vn 0.0000 -0.0900 -0.9959
vn -0.3745 -0.9266 -0.0324
vn -0.3745 -0.9266 -0.0324
vn -0.3745 -0.9266 -0.0324
vn 0.3537 -0.9350 -0.0273
vn 0.3537 -0.9350 -0.0273
vn 0.3537 -0.9350 -0.0273
vn -0.4384 0.8976 0.0458
vn -0.4384 0.8976 0.0458
vn -0.4384 0.8976 0.0458
vn 0.6834 0.7238 0.0950
vn 0.6834 0.7238 0.0950
vn 0.6834 0.7238 0.0950
vn 0.7530 0.4265 -0.5010
vn 0.7530 0.4265 -0.5010
vn 0.7530 0.4265 -0.5010
vn 0.6624 -0.7360 0.1400
vn 0.6624 -0.7360 0.1400
vn 0.6624 -0.7360 0.1400
vn -0.6651 -0.7339 0.1381
vn -0.6651 -0.7339 0.1381
vn -0.6651 -0.7339 0.1381
vn 0.0000 -0.9513 -0.3083
vn 0.0000 -0.9513 -0.3083
vn 0.0000 -0.9513 -0.3083
vn -0.0361 -0.0893 -0.9954
vn -0.0361 -0.0893 -0.9954
vn -0.0361 -0.0893 -0.9954
vn 0.0341 -0.0901 -0.9954
vn 0.0341 -0.0901 -0.9954
vn 0.0341 -0.0901 -0.9954
vn -0.7547 0.4127 -0.5100
vn -0.7547 0.4127 -0.5100
vn -0.7547 0.4127 -0.5100
vn -0.4149 -0.9022 -0.1178
vn -0.4149 -0.9022 -0.1178
vn -0.4149 -0.9022 -0.1178
vn -0.4149 -0.9022 -0.1178
vn 0.0000 -0.4060 -0.9139
vn 0.0000 -0.4060 -0.9139
vn 0.0000 -0.4060 -0.9139
vn 0.0000 -0.4060 -0.9139
vn 0.3975 -0.9071 -0.1386
vn 0.3975 -0.9071 -0.1386
vn 0.3975 -0.9071 -0.1386
vn 0.3975 -0.9071 -0.1386
vn 0.8700 0.3706 0.3251
vn 0.8700 0.3706 0.3251
vn 0.8700 0.3706 0.3251
vn -0.8275 0.4196 0.3731
vn -0.8275 0.4196 0.3731
vn -0.8275 0.4196 0.3731
vn -0.8217 0.5697 0.0143
vn -0.8217 0.5697 0.0143
vn -0.8217 0.5697 0.0143
vn -0.0004 -0.8021 -0.5972
vn -0.0004 -0.8021 -0.5972
vn -0.0004 -0.8021 -0.5972
vn 0.7421 -0.6172 -0.2613
vn 0.7421 -0.6172 -0.2613
vn 0.7421 -0.6172 -0.2613
vn -0.0004 -0.9252 -0.3794
vn -0.0004 -0.9252 -0.3794
vn -0.0004 -0.9252 -0.3794
vn 0.9284 0.2476 0.2769
vn 0.9284 0.2476 0.2769
vn 0.9284 0.2476 0.2769
vn 0.9284 0.2476 0.2769
vn -0.8509 0.0000 -0.5253
vn -0.8509 0.0000 -0.5253
vn -0.8509 0.0000 -0.5253
vn 0.0136 -0.8922 0.4514
vn 0.0136 -0.8922 0.4514
vn 0.0136 -0.8922 0.4514
vn 0.4826 -0.7903 0.3775
vn 0.4826 -0.7903 0.3775
vn 0.4826 -0.7903 0.3775
vn 0.4826 -0.7903 0.3775
vn -0.0033 0.9688 -0.2480
vn -0.0033 0.9688 -0.2480
vn -0.0033 0.9688 -0.2480
vn -0.0033 0.9688 -0.2480
vn 0.2435 -0.9174 0.3148
vn 0.2435 -0.9174 0.3148
vn 0.2435 -0.9174 0.3148
vn 0.5021 0.0985 0.8592
vn 0.5021 0.0985 0.8592
vn 0.5021 0.0985 0.8592
vn -0.1750 0.9372 -0.3017
vn -0.1750 0.9372 -0.3017
vn -0.1750 0.9372 -0.3017
vn -0.5711 -0.8070 -0.1503
vn -0.5711 -0.8070 -0.1503
vn -0.5711 -0.8070 -0.1503
vn -0.0102 -0.8363 -0.5482
vn -0.0102 -0.8363 -0.5482
vn -0.0102 -0.8363 -0.5482
vn -0.0102 -0.8363 -0.5482
vn -0.7130 0.0000 0.7012
vn -0.7130 0.0000 0.7012
vn -0.7130 0.0000 0.7012
vn 0.0105 0.8253 0.5646
vn 0.0105 0.8253 0.5646
vn 0.0105 0.8253 0.5646
vn 0.0105 0.8253 0.5646
vn 0.8199 0.0000 0.5725
vn 0.8199 0.0000 0.5725
vn 0.8199 0.0000 0.5725
vn -0.8700 0.3706 0.3251
vn -0.8700 0.3706 0.3251
vn -0.8700 0.3706 0.3251
vn 0.8275 0.4196 0.3731
vn 0.8275 0.4196 0.3731
vn 0.8275 0.4196 0.3731
vn 0.8217 0.5697 0.0143
vn 0.8217 0.5697 0.0143
vn 0.8217 0.5697 0.0143
vn 0.0004 -0.8021 -0.5972
vn 0.0004 -0.8021 -0.5972
vn 0.0004 -0.8021 -0.5972
vn -0.7421 -0.6172 -0.2613
vn -0.7421 -0.6172 -0.2613
vn -0.7421 -0.6172 -0.2613
vn 0.0004 -0.9252 -0.3794
vn 0.0004 -0.9252 -0.3794
vn 0.0004 -0.9252 -0.3794
vn -0.9284 0.2476 0.2769
vn -0.9284 0.2476 0.2769
vn -0.9284 0.2476 0.2769
vn -0.9284 0.2476 0.2769
vn 0.8509 0.0000 -0.5253
vn 0.8509 0.0000 -0.5253
vn 0.8509 0.0000 -0.5253
vn -0.0136 -0.8922 0.4514
vn -0.0136 -0.8922 0.4514
vn -0.0136 -0.8922 0.4514
vn -0.4826 -0.7903 0.3775
vn -0.4826 -0.7903 0.3775
vn -0.4826 -0.7903 0.3775
vn -0.4826 -0.7903 0.3775
vn 0.0033 0.9688 -0.2480
vn 0.0033 0.9688 -0.2480
vn 0.0033 0.9688 -0.2480
vn 0.0033 0.9688 -0.2480
vn -0.2435 -0.9174 0.3148
vn -0.2435 -0.9174 0.3148
vn -0.2435 -0.9174 0.3148
vn -0.5021 0.0985 0.8592
vn -0.5021 0.0985 0.8592
vn -0.5021 0.0985 0.8592
vn 0.1750 0.9372 -0.3017
vn 0.1750 0.9372 -0.3017
vn 0.1750 0.9372 -0.3017
vn 0.5711 -0.8070 -0.1503
vn 0.5711 -0.8070 -0.1503
vn 0.5711 -0.8070 -0.1503
vn 0.0102 -0.8363 -0.5482
vn 0.0102 -0.8363 -0.5482
vn 0.0102 -0.8363 -0.5482
vn 0.0102 -0.8363 -0.5482
vn 0.7130 0.0000 0.7012
vn 0.7130 0.0000 0.7012
vn 0.7130 0.0000 0.7012
vn -0.0105 0.8253 0.5646
vn -0.0105 0.8253 0.5646
vn -0.0105 0.8253 0.5646
vn -0.0105 0.8253 0.5646
vn -0.8199 0.0000 0.5725
vn -0.8199 0.0000 0.5725
vn -0.8199 0.0000 0.5725
# 198 vertex normals

vt 1.0000 0.0000 0.0000
vt 0.0000 0.0000 0.0000
vt 1.0000 1.0000 0.0000
vt 0.0000 1.0000 0.0000
vt 0.0000 0.0000 0.0000
vt 1.0000 0.0000 0.0000
vt 0.0000 1.0000 0.0000
vt 1.0000 1.0000 0.0000
vt 0.0000 0.0000 0.0000
vt 1.0000 0.0000 0.0000
vt 0.0000 1.0000 0.0000
vt 1.0000 1.0000 0.0000
vt 0.0000 0.0000 0.0000
vt 1.0000 0.5000 0.0000
vt 0.0000 1.0000 0.0000
vt 1.0000 0.0000 0.0000
vt 1.0000 1.0000 0.0000
vt 0.0000 0.0000 0.0000
vt 1.0000 0.5000 0.0000
vt 0.0000 1.0000 0.0000
vt 0.0000 0.5000 0.0000
vt 0.0000 1.0000 0.0000
vt 0.0000 0.0867 0.0000
vt 0.0000 0.5000 0.0000
vt 1.0000 0.0000 0.0000
vt 1.0000 1.0000 0.0000
vt 138.5338 202.5818 74.0160
vt 103.5195 46.8931 19.6188
vt 103.8322 -68.7792 -82.6105
vt 70.8740 66.9098 -26.9615
vt 102.3182 66.9098 -26.9764
vt 0.0000 1.0000 0.0000
vt 1.0000 0.0000 0.0000
vt 1.0000 1.0000 0.0000
vt 0.0000 0.0000 0.0000
vt 0.0000 1.0000 0.0000
vt 1.0000 1.0000 0.0000
vt 0.0000 0.0000 0.0000
vt 1.0000 0.0000 0.0000
vt 0.0000 1.0000 0.0000
vt 0.0000 0.4981 0.0000
vt 0.5019 0.4981 0.0000
vt 0.0289 0.5059 0.0000
vt 0.0000 0.0000 0.0000
vt 0.0000 0.0000 0.0000
vt 0.0000 0.4981 0.0000
vt 0.9581 0.9581 0.0000
vt 0.9581 0.9581 0.0000
vt 0.0016 0.9728 0.0000
vt 1.0000 1.0000 0.0000
vt 0.0016 0.9728 0.0000
vt -138.4825 202.5818 74.0160
vt -103.4683 46.8931 19.6188
vt -103.7809 -68.7792 -82.6105
vt -70.8228 66.9098 -26.9615
vt -102.2670 66.9098 -26.9764
vt 0.0000 1.0000 0.0000
vt 1.0000 0.0000 0.0000
vt 1.0000 1.0000 0.0000
vt 0.0000 0.0000 0.0000
vt 0.0000 1.0000 0.0000
vt 1.0000 1.0000 0.0000
vt 0.0000 0.0000 0.0000
vt 1.0000 0.0000 0.0000
vt 0.0000 1.0000 0.0000
vt 0.0000 0.4981 0.0000
vt 0.5019 0.4981 0.0000
vt 0.0289 0.5059 0.0000
vt 0.0000 0.0000 0.0000
vt 0.0000 0.0000 0.0000
vt 0.0000 0.4981 0.0000
vt 0.9581 0.9581 0.0000
vt 0.9581 0.9581 0.0000
vt 0.0016 0.9728 0.0000
vt 1.0000 1.0000 0.0000
vt 0.0016 0.9728 0.0000
# 76 texture coords

g Arwing_SNES_high_poly_original
s off
f 1/1/1 4/4/2 2/2/3 
f 5/5/4 6/6/5 7/8/6 
f 2/9/7 4/10/8 7/12/9 6/11/10 
f 4/13/11 3/14/12 7/15/13 
f 14/24/14 15/25/15 16/26/16 
f 1/1/17 9/19/18 8/18/19 
f 2/9/20 6/11/21 9/19/22 
f 6/6/23 5/5/24 9/19/25 
f 5/17/26 1/16/27 13/23/28 12/22/29 
f 8/18/30 9/19/31 13/23/32 
f 9/19/33 10/20/34 12/22/35 
f 5/5/36 10/20/37 9/19/38 
f 1/1/39 2/2/40 9/19/41 
f 1/1/42 3/3/43 4/4/44 
f 9/19/45 11/21/46 13/23/47 
f 12/22/48 11/21/49 9/19/50 
f 13/23/51 11/21/52 12/22/53 
f 1/16/54 8/18/55 13/23/56 
f 12/22/57 10/20/58 5/17/59 
f 7/8/60 3/7/61 5/5/62 
f 14/24/63 3/3/64 1/1/65 15/25/66 
f 1/16/67 5/17/68 16/26/69 15/25/70 
f 16/26/71 5/5/72 3/7/73 14/24/74 
f 17/27/75 18/28/76 19/29/77 
f 18/28/78 20/30/79 19/29/80 
f 18/28/81 17/27/82 20/30/83 
f 20/30/84 17/27/85 21/31/86 
f 17/27/87 19/29/88 21/31/89 
f 19/29/90 20/30/91 21/31/92 
f 23/32/93 25/41/94 26/43/95 30/49/96 
f 27/45/97 24/34/98 29/48/99 
f 22/35/100 23/37/101 24/36/102 
f 22/38/103 27/39/104 25/42/105 23/40/106 
f 29/47/107 30/49/108 26/43/109 27/44/110 
f 27/39/111 28/46/112 25/42/113 
f 25/41/114 28/46/115 26/43/116 
f 26/43/117 28/46/118 27/44/119 
f 24/34/120 27/45/121 22/33/122 
f 23/37/123 32/51/124 31/50/125 24/36/126 
f 24/34/127 31/50/128 29/48/129 
f 29/47/130 31/50/131 32/51/132 30/49/133 
f 30/49/134 32/51/135 23/32/136 
f 33/52/137 35/54/138 34/53/139 
f 34/53/140 35/54/141 36/55/142 
f 34/53/143 36/55/144 33/52/145 
f 36/55/146 37/56/147 33/52/148 
f 33/52/149 37/56/150 35/54/151 
f 35/54/152 37/56/153 36/55/154 
f 39/57/155 46/74/156 42/68/157 41/66/158 
f 43/70/159 45/73/160 40/59/161 
f 38/60/162 40/61/163 39/62/164 
f 38/63/165 39/65/166 41/67/167 43/64/168 
f 45/72/169 43/69/170 42/68/171 46/74/172 
f 43/64/173 41/67/174 44/71/175 
f 41/66/176 42/68/177 44/71/178 
f 42/68/179 43/69/180 44/71/181 
f 40/59/182 38/58/183 43/70/184 
f 39/62/185 40/61/186 47/75/187 48/76/188 
f 40/59/189 45/73/190 47/75/191 
f 45/72/192 46/74/193 48/76/194 47/75/195 
f 46/74/196 39/57/197 48/76/198 
# 15 polygons - 46 triangles

